<mxfile host="app.diagrams.net" modified="2022-12-25T09:44:21.974Z" agent="5.0 (Macintosh; Intel Mac OS X 10_15_7) AppleWebKit/537.36 (KHTML, like Gecko) Chrome/108.0.0.0 Safari/537.36" version="20.7.4" etag="iA3dtrbcPxs5kYMtVFOY" type="github">
  <diagram id="kl64O6xlKoecXGVVzpih" name="Pagina-1">
    <mxGraphModel dx="1434" dy="664" grid="1" gridSize="10" guides="1" tooltips="1" connect="1" arrows="1" fold="1" page="1" pageScale="1" pageWidth="827" pageHeight="1169" math="0" shadow="0">
      <root>
        <mxCell id="0" />
        <mxCell id="1" parent="0" />
        <mxCell id="OSj5W5qcnyW0nb5HcVoF-3" style="edgeStyle=orthogonalEdgeStyle;rounded=0;orthogonalLoop=1;jettySize=auto;html=1;entryX=0.5;entryY=0;entryDx=0;entryDy=0;" edge="1" parent="1" source="OSj5W5qcnyW0nb5HcVoF-1" target="OSj5W5qcnyW0nb5HcVoF-2">
          <mxGeometry relative="1" as="geometry" />
        </mxCell>
        <mxCell id="OSj5W5qcnyW0nb5HcVoF-1" value="material app" style="rounded=1;whiteSpace=wrap;html=1;" vertex="1" parent="1">
          <mxGeometry x="370" y="140" width="120" height="60" as="geometry" />
        </mxCell>
        <mxCell id="OSj5W5qcnyW0nb5HcVoF-5" value="" style="edgeStyle=orthogonalEdgeStyle;rounded=0;orthogonalLoop=1;jettySize=auto;html=1;" edge="1" parent="1" source="OSj5W5qcnyW0nb5HcVoF-2" target="OSj5W5qcnyW0nb5HcVoF-4">
          <mxGeometry relative="1" as="geometry" />
        </mxCell>
        <mxCell id="OSj5W5qcnyW0nb5HcVoF-6" style="edgeStyle=orthogonalEdgeStyle;rounded=0;orthogonalLoop=1;jettySize=auto;html=1;" edge="1" parent="1" source="OSj5W5qcnyW0nb5HcVoF-2" target="OSj5W5qcnyW0nb5HcVoF-7">
          <mxGeometry relative="1" as="geometry">
            <mxPoint x="590" y="320" as="targetPoint" />
          </mxGeometry>
        </mxCell>
        <mxCell id="OSj5W5qcnyW0nb5HcVoF-2" value="Scaffold" style="rounded=1;whiteSpace=wrap;html=1;" vertex="1" parent="1">
          <mxGeometry x="370" y="280" width="120" height="60" as="geometry" />
        </mxCell>
        <mxCell id="OSj5W5qcnyW0nb5HcVoF-4" value="appbar" style="rounded=1;whiteSpace=wrap;html=1;" vertex="1" parent="1">
          <mxGeometry x="260" y="420" width="120" height="60" as="geometry" />
        </mxCell>
        <mxCell id="OSj5W5qcnyW0nb5HcVoF-9" value="" style="edgeStyle=orthogonalEdgeStyle;rounded=0;orthogonalLoop=1;jettySize=auto;html=1;" edge="1" parent="1" source="OSj5W5qcnyW0nb5HcVoF-7" target="OSj5W5qcnyW0nb5HcVoF-8">
          <mxGeometry relative="1" as="geometry" />
        </mxCell>
        <mxCell id="OSj5W5qcnyW0nb5HcVoF-7" value="Center" style="rounded=1;whiteSpace=wrap;html=1;" vertex="1" parent="1">
          <mxGeometry x="510" y="420" width="120" height="60" as="geometry" />
        </mxCell>
        <mxCell id="OSj5W5qcnyW0nb5HcVoF-8" value="Text" style="whiteSpace=wrap;html=1;rounded=1;" vertex="1" parent="1">
          <mxGeometry x="510" y="560" width="120" height="60" as="geometry" />
        </mxCell>
        <mxCell id="OSj5W5qcnyW0nb5HcVoF-11" value="SchermÂ­afbeelding 2022-12-25 om 10.43.30" style="text;whiteSpace=wrap;html=1;" vertex="1" parent="1">
          <mxGeometry x="60" y="140" width="150" height="120" as="geometry" />
        </mxCell>
      </root>
    </mxGraphModel>
  </diagram>
</mxfile>
